<?xml version="1.0" encoding="utf-8" standalone="no"?>
<!DOCTYPE svg PUBLIC "-//W3C//DTD SVG 1.1//EN"
  "http://www.w3.org/Graphics/SVG/1.1/DTD/svg11.dtd">
<!-- Created with matplotlib (https://matplotlib.org/) -->
<svg height="502.56pt" version="1.1" viewBox="0 0 1036.8 502.56" width="1036.8pt" xmlns="http://www.w3.org/2000/svg" xmlns:xlink="http://www.w3.org/1999/xlink">
 <metadata>
  <rdf:RDF xmlns:cc="http://creativecommons.org/ns#" xmlns:dc="http://purl.org/dc/elements/1.1/" xmlns:rdf="http://www.w3.org/1999/02/22-rdf-syntax-ns#">
   <cc:Work>
    <dc:type rdf:resource="http://purl.org/dc/dcmitype/StillImage"/>
    <dc:date>2021-01-09T00:36:35.769561</dc:date>
    <dc:format>image/svg+xml</dc:format>
    <dc:creator>
     <cc:Agent>
      <dc:title>Matplotlib v3.3.2, https://matplotlib.org/</dc:title>
     </cc:Agent>
    </dc:creator>
   </cc:Work>
  </rdf:RDF>
 </metadata>
 <defs>
  <style type="text/css">*{stroke-linecap:butt;stroke-linejoin:round;}</style>
 </defs>
 <g id="figure_1">
  <g id="patch_1">
   <path d="M 0 502.56 
L 1036.8 502.56 
L 1036.8 0 
L 0 0 
z
" style="fill:none;"/>
  </g>
  <g id="axes_1">
   <g id="patch_2">
    <path d="M 736.468713 253.213412 
C 736.468713 224.576892 730.827942 196.218825 719.86922 169.762129 
C 708.910498 143.305434 692.846944 119.264625 672.597865 99.015547 
C 652.348787 78.766469 628.307979 62.702914 601.851283 51.744192 
C 575.394588 40.78547 547.036521 35.1447 518.4 35.1447 
C 489.763479 35.1447 461.405412 40.78547 434.948717 51.744192 
C 408.492021 62.702914 384.451213 78.766469 364.202135 99.015547 
C 343.953056 119.264625 327.889502 143.305434 316.93078 169.762129 
C 305.972058 196.218825 300.331287 224.576892 300.331287 253.213412 
C 300.331287 281.849933 305.972058 310.208 316.93078 336.664696 
C 327.889502 363.121391 343.953056 387.1622 364.202135 407.411278 
C 384.451213 427.660356 408.492021 443.723911 434.948717 454.682633 
C 461.405412 465.641355 489.763479 471.282125 518.4 471.282125 
C 547.036521 471.282125 575.394588 465.641355 601.851283 454.682633 
C 628.307979 443.723911 652.348787 427.660356 672.597865 407.411278 
C 692.846944 387.1622 708.910498 363.121391 719.86922 336.664696 
C 730.827942 310.208 736.468713 281.849933 736.468713 253.213413 
M 518.4 253.213412 
C 518.4 253.213412 518.4 253.213412 518.4 253.213412 
C 518.4 253.213412 518.4 253.213412 518.4 253.213412 
C 518.4 253.213412 518.4 253.213412 518.4 253.213412 
C 518.4 253.213412 518.4 253.213412 518.4 253.213412 
C 518.4 253.213412 518.4 253.213412 518.4 253.213412 
C 518.4 253.213412 518.4 253.213412 518.4 253.213412 
C 518.4 253.213412 518.4 253.213412 518.4 253.213412 
C 518.4 253.213412 518.4 253.213412 518.4 253.213412 
C 518.4 253.213412 518.4 253.213412 518.4 253.213412 
C 518.4 253.213412 518.4 253.213412 518.4 253.213412 
C 518.4 253.213412 518.4 253.213412 518.4 253.213412 
C 518.4 253.213412 518.4 253.213412 518.4 253.213412 
C 518.4 253.213412 518.4 253.213412 518.4 253.213412 
C 518.4 253.213412 518.4 253.213412 518.4 253.213412 
C 518.4 253.213412 518.4 253.213412 518.4 253.213412 
C 518.4 253.213412 518.4 253.213412 518.4 253.213412 
M 736.468713 253.213412 
z
" style="fill:none;"/>
   </g>
   <g id="PolyCollection_1">
    <path clip-path="url(#pa566e90c19)" d="M 518.4 253.213413 
L 518.4 253.213413 
L 518.4 253.213413 
L 518.4 253.213413 
L 518.4 253.213413 
L 518.4 253.213413 
L 518.4 253.213413 
L 518.4 253.213413 
L 518.4 253.213413 
L 518.4 253.213413 
L 518.4 253.213413 
L 518.4 253.213413 
L 518.4 144.179056 
L 588.485933 169.68825 
L 625.777879 234.279795 
L 612.826522 307.730591 
L 555.691946 355.672192 
L 481.108054 355.672192 
L 423.973478 307.730591 
L 411.022121 234.279795 
L 448.314067 169.68825 
L 518.4 144.179056 
z
" style="fill:#1985ba;fill-opacity:0.1;"/>
   </g>
   <g id="patch_3">
    <path clip-path="url(#pa566e90c19)" d="M 388.212434 266.275739 
C 389.927763 283.371814 394.993966 299.963768 403.121108 315.102054 
C 411.24825 330.240339 422.278278 343.630554 435.579949 354.506383 
C 448.88162 365.382213 464.19625 373.532149 480.647392 378.489776 
C 497.098533 383.447404 514.366252 385.116308 531.462327 383.400979 
C 548.558401 381.68565 565.150356 376.619446 580.288641 368.492304 
C 595.426926 360.365163 608.817141 349.335135 619.692971 336.033464 
C 630.5688 322.731793 638.718737 307.417162 643.676364 290.966021 
C 648.633991 274.514879 650.302895 257.24716 648.587566 240.151086 
C 646.872237 223.055011 641.806034 206.463057 633.678892 191.324771 
C 625.55175 176.186486 614.521722 162.796271 601.220051 151.920442 
C 587.91838 141.044612 572.60375 132.894676 556.152608 127.937049 
C 539.701467 122.979421 522.433748 121.310517 505.337673 123.025846 
C 488.241599 124.741175 471.649644 129.807379 456.511359 137.934521 
C 441.373074 146.061662 427.982859 157.09169 417.107029 170.393361 
C 406.2312 183.695032 398.081263 199.009663 393.123636 215.460804 
C 388.166009 231.911946 386.497105 249.179665 388.212434 266.275739 
L 366.514506 268.452794 
C 364.513289 248.507373 366.460344 228.361701 372.244242 209.168703 
C 378.02814 189.975704 387.5364 172.108636 400.224867 156.590019 
C 412.913335 141.071403 428.535252 128.203037 446.196585 118.721372 
C 463.857918 109.239706 483.215198 103.329136 503.160619 101.327918 
C 523.106039 99.326701 543.251711 101.273756 562.44471 107.057655 
C 581.637708 112.841553 599.504777 122.349812 615.023393 135.03828 
C 630.542009 147.726748 643.410375 163.348665 652.892041 181.009998 
C 662.373706 198.671331 668.284277 218.028611 670.285494 237.974031 
C 672.286711 257.919452 670.339656 278.065124 664.555758 297.258122 
C 658.77186 316.451121 649.2636 334.318189 636.575133 349.836806 
C 623.886665 365.355422 608.264748 378.223788 590.603415 387.705453 
C 572.942082 397.187119 553.584802 403.097689 533.639381 405.098907 
C 513.693961 407.100124 493.548289 405.153069 474.35529 399.36917 
C 455.162292 393.585272 437.295223 384.077013 421.776607 371.388545 
C 406.257991 358.700077 393.389625 343.07816 383.907959 325.416827 
C 374.426294 307.755494 368.515723 288.398214 366.514506 268.452794 
z
" style="fill:#0c6aa6;opacity:0.1;"/>
   </g>
   <g id="patch_4">
    <path clip-path="url(#pa566e90c19)" d="M 344.816578 270.629848 
C 347.103684 293.424614 353.858622 315.54722 364.694811 335.731601 
C 375.531 355.915981 390.237704 373.769601 407.973265 388.270707 
C 425.708827 402.771813 446.128334 413.638395 468.063189 420.248564 
C 489.998044 426.858734 513.02167 429.08394 535.816436 426.796834 
C 558.611202 424.509729 580.733808 417.754791 600.918188 406.918602 
C 621.102569 396.082413 638.956188 381.375709 653.457294 363.640147 
C 667.9584 345.904586 678.824983 325.485079 685.435152 303.550224 
C 692.045321 281.615368 694.270527 258.591743 691.983422 235.796977 
C 689.696316 213.002211 682.941378 190.879605 672.105189 170.695224 
C 661.269 150.510844 646.562296 132.657224 628.826735 118.156118 
C 611.091173 103.655012 590.671666 92.78843 568.736811 86.178261 
C 546.801956 79.568091 523.77833 77.342885 500.983564 79.629991 
C 478.188798 81.917096 456.066192 88.672034 435.881812 99.508223 
C 415.697431 110.344412 397.843812 125.051116 383.342706 142.786678 
C 368.8416 160.522239 357.975017 180.941746 351.364848 202.876601 
C 344.754679 224.811457 342.529473 247.835082 344.816578 270.629848 
L 323.11865 272.806903 
C 320.545657 247.162791 323.049013 221.261212 330.485454 196.5845 
C 337.921895 171.907788 350.1468 148.935842 366.460544 128.983336 
C 382.774288 109.030829 402.85961 92.485787 425.567038 80.295075 
C 448.274466 68.104362 473.162398 60.505057 498.80651 57.932063 
C 524.450622 55.359069 550.3522 57.862426 575.028913 65.298867 
C 599.705625 72.735307 622.67757 84.960212 642.630077 101.273956 
C 662.582583 117.5877 679.127625 137.673023 691.318338 160.380451 
C 703.509051 183.087879 711.108356 207.97581 713.68135 233.619922 
C 716.254343 259.264034 713.750987 285.165613 706.314546 309.842325 
C 698.878105 334.519037 686.6532 357.490983 670.339456 377.443489 
C 654.025712 397.395996 633.94039 413.941038 611.232962 426.13175 
C 588.525534 438.322463 563.637602 445.921768 537.99349 448.494762 
C 512.349378 451.067756 486.4478 448.564399 461.771087 441.127958 
C 437.094375 433.691518 414.12243 421.466613 394.169923 405.152869 
C 374.217417 388.839125 357.672375 368.753802 345.481662 346.046374 
C 333.290949 323.338946 325.691644 298.451015 323.11865 272.806903 
z
" style="fill:#0c6aa6;opacity:0.1;"/>
   </g>
   <g id="matplotlib.axis_1">
    <g id="xtick_1">
     <g id="line2d_1">
      <path clip-path="url(#pa566e90c19)" d="M 518.4 253.213413 
L 733.155759 215.346178 
" style="fill:none;stroke:#212121;stroke-linecap:square;stroke-opacity:0.3;"/>
     </g>
    </g>
    <g id="xtick_2">
     <g id="line2d_2">
      <path clip-path="url(#pa566e90c19)" d="M 518.4 253.213413 
L 658.571866 86.163087 
" style="fill:none;stroke:#212121;stroke-linecap:square;stroke-opacity:0.3;"/>
     </g>
    </g>
    <g id="xtick_3">
     <g id="line2d_3">
      <path clip-path="url(#pa566e90c19)" d="M 518.4 253.213413 
L 518.4 35.1447 
" style="fill:none;stroke:#212121;stroke-linecap:square;stroke-opacity:0.3;"/>
     </g>
    </g>
    <g id="xtick_4">
     <g id="line2d_4">
      <path clip-path="url(#pa566e90c19)" d="M 518.4 253.213413 
L 378.228134 86.163087 
" style="fill:none;stroke:#212121;stroke-linecap:square;stroke-opacity:0.3;"/>
     </g>
    </g>
    <g id="xtick_5">
     <g id="line2d_5">
      <path clip-path="url(#pa566e90c19)" d="M 518.4 253.213413 
L 303.644241 215.346178 
" style="fill:none;stroke:#212121;stroke-linecap:square;stroke-opacity:0.3;"/>
     </g>
    </g>
    <g id="xtick_6">
     <g id="line2d_6">
      <path clip-path="url(#pa566e90c19)" d="M 518.4 253.213413 
L 329.546955 362.247769 
" style="fill:none;stroke:#212121;stroke-linecap:square;stroke-opacity:0.3;"/>
     </g>
    </g>
    <g id="xtick_7">
     <g id="line2d_7">
      <path clip-path="url(#pa566e90c19)" d="M 518.4 253.213413 
L 443.816108 458.130972 
" style="fill:none;stroke:#212121;stroke-linecap:square;stroke-opacity:0.3;"/>
     </g>
    </g>
    <g id="xtick_8">
     <g id="line2d_8">
      <path clip-path="url(#pa566e90c19)" d="M 518.4 253.213413 
L 592.983892 458.130972 
" style="fill:none;stroke:#212121;stroke-linecap:square;stroke-opacity:0.3;"/>
     </g>
    </g>
    <g id="xtick_9">
     <g id="line2d_9">
      <path clip-path="url(#pa566e90c19)" d="M 518.4 253.213413 
L 707.253045 362.247769 
" style="fill:none;stroke:#212121;stroke-linecap:square;stroke-opacity:0.3;"/>
     </g>
    </g>
    <g id="text_1">
     <!--  - -->
     <g style="opacity:0;" transform="translate(514.735312 483.8715)scale(0.12 -0.12)">
      <defs>
       <path id="ArialUnicodeMS-32"/>
       <path d="M 30.078125 21.484375 
L 3.21875 21.484375 
L 3.21875 30.328125 
L 30.078125 30.328125 
z
" id="ArialUnicodeMS-45"/>
      </defs>
      <use xlink:href="#ArialUnicodeMS-32"/>
      <use x="27.783203" xlink:href="#ArialUnicodeMS-45"/>
     </g>
     <!--   -->
     <g style="opacity:0;" transform="translate(516.733125 496.569375)scale(0.12 -0.12)">
      <use xlink:href="#ArialUnicodeMS-32"/>
     </g>
    </g>
   </g>
   <g id="matplotlib.axis_2">
    <g id="ytick_1">
     <g id="line2d_10">
      <path clip-path="url(#pa566e90c19)" d="M 562.013743 253.213413 
C 562.013743 247.486108 560.885588 241.814495 558.693844 236.523156 
C 556.5021 231.231817 553.289389 226.423655 549.239573 222.373839 
C 545.189757 218.324024 540.381596 215.111313 535.090257 212.919568 
C 529.798918 210.727824 524.127304 209.59967 518.4 209.59967 
C 512.672696 209.59967 507.001082 210.727824 501.709743 212.919568 
C 496.418404 215.111313 491.610243 218.324024 487.560427 222.373839 
C 483.510611 226.423655 480.2979 231.231817 478.106156 236.523156 
C 475.914412 241.814495 474.786257 247.486108 474.786257 253.213413 
C 474.786257 258.940717 475.914412 264.61233 478.106156 269.903669 
C 480.2979 275.195008 483.510611 280.00317 487.560427 284.052986 
C 491.610243 288.102801 496.418404 291.315512 501.709743 293.507257 
C 507.001082 295.699001 512.672696 296.827155 518.4 296.827155 
C 524.127304 296.827155 529.798918 295.699001 535.090257 293.507257 
C 540.381596 291.315512 545.189757 288.102801 549.239573 284.052986 
C 553.289389 280.00317 556.5021 275.195008 558.693844 269.903669 
C 560.885588 264.61233 562.013743 258.940717 562.013743 253.213413 
" style="fill:none;stroke:#212121;stroke-linecap:square;stroke-opacity:0.3;"/>
     </g>
     <g id="text_2">
      <!-- 2 -->
      <g style="fill:#808080;" transform="translate(558.693844 234.864062)scale(0.08328 -0.08328)">
       <defs>
        <path d="M 50.484375 0 
L 3.078125 0 
Q 3.078125 6.0625 7.296875 12.25 
Q 11.53125 18.453125 23.09375 27.78125 
Q 30.171875 33.453125 35.734375 39.671875 
Q 41.3125 45.90625 41.3125 52.203125 
Q 41.3125 57.625 37.46875 61.15625 
Q 33.640625 64.703125 27.78125 64.703125 
Q 21.875 64.703125 17.875 61.0625 
Q 13.875 57.421875 13.8125 50.203125 
L 4.78125 51.21875 
Q 5.609375 61.28125 11.9375 66.59375 
Q 18.265625 71.921875 27.984375 71.921875 
Q 38.53125 71.921875 44.40625 66.078125 
Q 50.296875 60.25 50.296875 52 
Q 50.296875 45.125 45.328125 38.0625 
Q 40.375 31 25.59375 19.1875 
Q 17.828125 12.984375 15.28125 8.5 
L 50.484375 8.5 
z
" id="ArialUnicodeMS-50"/>
       </defs>
       <use xlink:href="#ArialUnicodeMS-50"/>
      </g>
     </g>
    </g>
    <g id="ytick_2">
     <g id="line2d_11">
      <path clip-path="url(#pa566e90c19)" d="M 605.627485 253.213413 
C 605.627485 241.758804 603.371177 230.415577 598.987688 219.832899 
C 594.604199 209.250221 588.178777 199.633898 580.079146 191.534266 
C 571.979515 183.434635 562.363192 177.009213 551.780513 172.625724 
C 541.197835 168.242236 529.854608 165.985928 518.4 165.985928 
C 506.945392 165.985928 495.602165 168.242236 485.019487 172.625724 
C 474.436808 177.009213 464.820485 183.434635 456.720854 191.534266 
C 448.621223 199.633898 442.195801 209.250221 437.812312 219.832899 
C 433.428823 230.415577 431.172515 241.758804 431.172515 253.213413 
C 431.172515 264.668021 433.428823 276.011248 437.812312 286.593926 
C 442.195801 297.176604 448.621223 306.792927 456.720854 314.892559 
C 464.820485 322.99219 474.436808 329.417612 485.019487 333.801101 
C 495.602165 338.184589 506.945392 340.440898 518.4 340.440898 
C 529.854608 340.440898 541.197835 338.184589 551.780513 333.801101 
C 562.363192 329.417612 571.979515 322.99219 580.079146 314.892559 
C 588.178777 306.792927 594.604199 297.176604 598.987688 286.593926 
C 603.371177 276.011248 605.627485 264.668021 605.627485 253.213413 
" style="fill:none;stroke:#212121;stroke-linecap:square;stroke-opacity:0.3;"/>
     </g>
     <g id="text_3">
      <!-- 4 -->
      <g style="fill:#808080;" transform="translate(598.987688 217.442274)scale(0.12 -0.12)">
       <defs>
        <path d="M 50.984375 17.09375 
L 41.3125 17.09375 
L 41.3125 0 
L 32.515625 0 
L 32.515625 17.09375 
L 1.515625 17.09375 
L 1.515625 25.203125 
L 34.078125 71.578125 
L 41.3125 71.578125 
L 41.3125 25.203125 
L 50.984375 25.203125 
z
M 32.515625 25.203125 
L 32.515625 57.515625 
L 32.328125 57.515625 
L 10.109375 25.203125 
z
" id="ArialUnicodeMS-52"/>
       </defs>
       <use xlink:href="#ArialUnicodeMS-52"/>
      </g>
     </g>
    </g>
    <g id="ytick_3">
     <g id="line2d_12">
      <path clip-path="url(#pa566e90c19)" d="M 649.241228 253.213413 
C 649.241228 236.0315 645.856765 219.01666 639.281532 203.142642 
C 632.706299 187.268625 623.068166 172.84414 610.918719 160.694693 
C 598.769272 148.545246 584.344787 138.907114 568.47077 132.33188 
C 552.596753 125.756647 535.581913 122.372185 518.4 122.372185 
C 501.218087 122.372185 484.203247 125.756647 468.32923 132.33188 
C 452.455213 138.907114 438.030728 148.545246 425.881281 160.694693 
C 413.731834 172.84414 404.093701 187.268625 397.518468 203.142642 
C 390.943235 219.01666 387.558772 236.0315 387.558772 253.213412 
C 387.558772 270.395325 390.943235 287.410165 397.518468 303.284183 
C 404.093701 319.1582 413.731834 333.582685 425.881281 345.732132 
C 438.030728 357.881579 452.455213 367.519711 468.32923 374.094945 
C 484.203247 380.670178 501.218087 384.05464 518.4 384.05464 
C 535.581913 384.05464 552.596753 380.670178 568.47077 374.094945 
C 584.344787 367.519711 598.769272 357.881579 610.918719 345.732132 
C 623.068166 333.582685 632.706299 319.1582 639.281532 303.284183 
C 645.856765 287.410165 649.241228 270.395325 649.241228 253.213413 
" style="fill:none;stroke:#212121;stroke-linecap:square;stroke-opacity:0.3;"/>
     </g>
     <g id="text_4">
      <!-- 6 -->
      <g style="fill:#808080;" transform="translate(639.281532 200.752017)scale(0.12 -0.12)">
       <defs>
        <path d="M 13.09375 36.921875 
Q 19.140625 46.390625 30.328125 46.390625 
Q 39.109375 46.390625 45.265625 39.890625 
Q 51.421875 33.40625 51.421875 23.296875 
Q 51.421875 13.09375 45.28125 5.9375 
Q 39.15625 -1.21875 29 -1.21875 
Q 18.703125 -1.21875 11.453125 6.390625 
Q 4.203125 14.015625 4.203125 33.5 
Q 4.203125 52.640625 10.765625 62.28125 
Q 17.328125 71.921875 29.78125 71.921875 
Q 37.84375 71.921875 43.40625 67.421875 
Q 48.96875 62.9375 50.203125 54.109375 
L 41.40625 53.328125 
Q 39.015625 64.703125 29.296875 64.703125 
Q 22.5625 64.703125 17.71875 58 
Q 12.890625 51.3125 12.890625 36.921875 
z
M 28.8125 6 
Q 34.859375 6 38.625 10.875 
Q 42.390625 15.765625 42.390625 22.703125 
Q 42.390625 29.640625 38.625 34.171875 
Q 34.859375 38.71875 28.515625 38.71875 
Q 22.703125 38.71875 18.5 34.4375 
Q 14.3125 30.171875 14.3125 23.1875 
Q 14.3125 16.0625 18.4375 11.03125 
Q 22.5625 6 28.8125 6 
z
" id="ArialUnicodeMS-54"/>
       </defs>
       <use xlink:href="#ArialUnicodeMS-54"/>
      </g>
     </g>
    </g>
    <g id="ytick_4">
     <g id="line2d_13">
      <path clip-path="url(#pa566e90c19)" d="M 692.85497 253.213413 
C 692.85497 230.304196 688.342354 207.617742 679.575376 186.452386 
C 670.808398 165.287029 657.957555 146.054383 641.758292 129.85512 
C 625.55903 113.655858 606.326383 100.805014 585.161027 92.038036 
C 563.99567 83.271059 541.309217 78.758442 518.4 78.758442 
C 495.490783 78.758442 472.80433 83.271059 451.638973 92.038036 
C 430.473617 100.805014 411.24097 113.655858 395.041708 129.85512 
C 378.842445 146.054383 365.991602 165.287029 357.224624 186.452386 
C 348.457646 207.617742 343.94503 230.304196 343.94503 253.213412 
C 343.94503 276.122629 348.457646 298.809083 357.224624 319.974439 
C 365.991602 341.139796 378.842445 360.372442 395.041708 376.571705 
C 411.24097 392.770967 430.473617 405.621811 451.638973 414.388789 
C 472.80433 423.155766 495.490783 427.668383 518.4 427.668383 
C 541.309217 427.668383 563.99567 423.155766 585.161027 414.388789 
C 606.326383 405.621811 625.55903 392.770967 641.758292 376.571705 
C 657.957555 360.372442 670.808398 341.139796 679.575376 319.974439 
C 688.342354 298.809083 692.85497 276.122629 692.85497 253.213413 
" style="fill:none;stroke:#212121;stroke-linecap:square;stroke-opacity:0.3;"/>
     </g>
     <g id="text_5">
      <!-- 8 -->
      <g style="fill:#808080;" transform="translate(679.575376 184.061761)scale(0.12 -0.12)">
       <defs>
        <path d="M 37.890625 38.71875 
Q 51.3125 34.421875 51.3125 20.40625 
Q 51.3125 11.1875 44.71875 4.984375 
Q 38.140625 -1.21875 27.78125 -1.21875 
Q 17.328125 -1.21875 10.765625 5.03125 
Q 4.203125 11.28125 4.203125 20.703125 
Q 4.203125 27.484375 7.890625 32.5625 
Q 11.578125 37.640625 17.828125 38.71875 
L 17.828125 38.921875 
Q 7.078125 42.234375 7.078125 53.421875 
Q 7.078125 61.328125 12.734375 66.625 
Q 18.40625 71.921875 27.59375 71.921875 
Q 36.921875 71.921875 42.65625 66.453125 
Q 48.390625 60.984375 48.390625 53.21875 
Q 48.390625 42.671875 37.890625 38.921875 
z
M 27.78125 42.1875 
Q 32.71875 42.1875 36.0625 45.328125 
Q 39.40625 48.484375 39.40625 53.21875 
Q 39.40625 58.0625 36.015625 61.375 
Q 32.625 64.703125 27.6875 64.703125 
Q 22.65625 64.703125 19.375 61.421875 
Q 16.109375 58.15625 16.109375 53.71875 
Q 16.109375 48.390625 19.484375 45.28125 
Q 22.859375 42.1875 27.78125 42.1875 
z
M 27.78125 6 
Q 33.984375 6 38.125 10 
Q 42.28125 14.015625 42.28125 20.40625 
Q 42.28125 26.8125 38 30.90625 
Q 33.734375 35.015625 27.59375 35.015625 
Q 21.1875 35.015625 17.1875 30.78125 
Q 13.1875 26.5625 13.1875 20.609375 
Q 13.1875 14.40625 17.3125 10.203125 
Q 21.4375 6 27.78125 6 
z
" id="ArialUnicodeMS-56"/>
       </defs>
       <use xlink:href="#ArialUnicodeMS-56"/>
      </g>
     </g>
    </g>
    <g id="ytick_5">
     <g id="line2d_14">
      <path clip-path="url(#pa566e90c19)" d="M 736.468713 253.213413 
C 736.468713 224.576892 730.827942 196.218825 719.86922 169.762129 
C 708.910498 143.305434 692.846944 119.264625 672.597865 99.015547 
C 652.348787 78.766469 628.307979 62.702914 601.851283 51.744192 
C 575.394588 40.78547 547.036521 35.1447 518.4 35.1447 
C 489.763479 35.1447 461.405412 40.78547 434.948717 51.744192 
C 408.492021 62.702914 384.451213 78.766469 364.202135 99.015547 
C 343.953056 119.264625 327.889502 143.305434 316.93078 169.762129 
C 305.972058 196.218825 300.331287 224.576892 300.331287 253.213412 
C 300.331287 281.849933 305.972058 310.208 316.93078 336.664696 
C 327.889502 363.121391 343.953056 387.1622 364.202135 407.411278 
C 384.451213 427.660356 408.492021 443.723911 434.948717 454.682633 
C 461.405412 465.641355 489.763479 471.282125 518.4 471.282125 
C 547.036521 471.282125 575.394588 465.641355 601.851283 454.682633 
C 628.307979 443.723911 652.348787 427.660356 672.597865 407.411278 
C 692.846944 387.1622 708.910498 363.121391 719.86922 336.664696 
C 730.827942 310.208 736.468713 281.849933 736.468713 253.213413 
" style="fill:none;stroke:#212121;stroke-linecap:square;stroke-opacity:0.3;"/>
     </g>
     <g id="text_6">
      <!-- 10 -->
      <g style="fill:#808080;" transform="translate(719.86922 167.371504)scale(0.12 -0.12)">
       <defs>
        <path d="M 37.5 0 
L 28.71875 0 
L 28.71875 56 
Q 22.125 49.75 11.078125 45.40625 
L 11.078125 53.90625 
Q 26.265625 61.1875 31.78125 71.921875 
L 37.5 71.921875 
z
" id="ArialUnicodeMS-49"/>
        <path d="M 27.78125 71.921875 
Q 51.125 71.921875 51.125 35.296875 
Q 51.125 16.796875 45.09375 7.78125 
Q 39.0625 -1.21875 27.78125 -1.21875 
Q 4.5 -1.21875 4.5 35.296875 
Q 4.5 53.8125 10.515625 62.859375 
Q 16.546875 71.921875 27.78125 71.921875 
z
M 27.78125 6 
Q 34.859375 6 38.46875 12.859375 
Q 42.09375 19.734375 42.09375 35.296875 
Q 42.09375 46.140625 40.5 52.359375 
Q 38.921875 58.59375 35.71875 61.640625 
Q 32.515625 64.703125 27.6875 64.703125 
Q 20.609375 64.703125 17.046875 57.71875 
Q 13.484375 50.734375 13.484375 35.296875 
Q 13.484375 24.609375 15.09375 18.359375 
Q 16.703125 12.109375 19.875 9.046875 
Q 23.046875 6 27.78125 6 
z
" id="ArialUnicodeMS-48"/>
       </defs>
       <use xlink:href="#ArialUnicodeMS-49"/>
       <use x="55.615234" xlink:href="#ArialUnicodeMS-48"/>
      </g>
     </g>
    </g>
   </g>
   <g id="line2d_15">
    <path clip-path="url(#pa566e90c19)" d="M 518.4 144.179056 
L 448.314067 169.68825 
L 411.022121 234.279795 
L 423.973478 307.730591 
L 481.108054 355.672192 
L 555.691946 355.672192 
L 612.826522 307.730591 
L 625.777879 234.279795 
L 588.485933 169.68825 
L 518.4 144.179056 
" style="fill:none;stroke:#0c6aa6;stroke-linecap:square;stroke-width:1.5;"/>
    <defs>
     <path d="M 0 3 
C 0.795609 3 1.55874 2.683901 2.12132 2.12132 
C 2.683901 1.55874 3 0.795609 3 0 
C 3 -0.795609 2.683901 -1.55874 2.12132 -2.12132 
C 1.55874 -2.683901 0.795609 -3 0 -3 
C -0.795609 -3 -1.55874 -2.683901 -2.12132 -2.12132 
C -2.683901 -1.55874 -3 -0.795609 -3 0 
C -3 0.795609 -2.683901 1.55874 -2.12132 2.12132 
C -1.55874 2.683901 -0.795609 3 0 3 
z
" id="m9b5d1923de" style="stroke:#0c6aa6;"/>
    </defs>
    <g clip-path="url(#pa566e90c19)">
     <use style="fill:#0c6aa6;stroke:#0c6aa6;" x="518.4" xlink:href="#m9b5d1923de" y="144.179056"/>
     <use style="fill:#0c6aa6;stroke:#0c6aa6;" x="448.314067" xlink:href="#m9b5d1923de" y="169.68825"/>
     <use style="fill:#0c6aa6;stroke:#0c6aa6;" x="411.022121" xlink:href="#m9b5d1923de" y="234.279795"/>
     <use style="fill:#0c6aa6;stroke:#0c6aa6;" x="423.973478" xlink:href="#m9b5d1923de" y="307.730591"/>
     <use style="fill:#0c6aa6;stroke:#0c6aa6;" x="481.108054" xlink:href="#m9b5d1923de" y="355.672192"/>
     <use style="fill:#0c6aa6;stroke:#0c6aa6;" x="555.691946" xlink:href="#m9b5d1923de" y="355.672192"/>
     <use style="fill:#0c6aa6;stroke:#0c6aa6;" x="612.826522" xlink:href="#m9b5d1923de" y="307.730591"/>
     <use style="fill:#0c6aa6;stroke:#0c6aa6;" x="625.777879" xlink:href="#m9b5d1923de" y="234.279795"/>
     <use style="fill:#0c6aa6;stroke:#0c6aa6;" x="588.485933" xlink:href="#m9b5d1923de" y="169.68825"/>
     <use style="fill:#0c6aa6;stroke:#0c6aa6;" x="518.4" xlink:href="#m9b5d1923de" y="144.179056"/>
    </g>
   </g>
   <g id="patch_5">
    <path d="M 736.468713 253.213413 
C 736.468713 224.576892 730.827942 196.218825 719.86922 169.762129 
C 708.910498 143.305434 692.846944 119.264625 672.597865 99.015547 
C 652.348787 78.766469 628.307979 62.702914 601.851283 51.744192 
C 575.394588 40.78547 547.036521 35.1447 518.4 35.1447 
C 489.763479 35.1447 461.405412 40.78547 434.948717 51.744192 
C 408.492021 62.702914 384.451213 78.766469 364.202135 99.015547 
C 343.953056 119.264625 327.889502 143.305434 316.93078 169.762129 
C 305.972058 196.218825 300.331287 224.576892 300.331287 253.213412 
C 300.331287 281.849933 305.972058 310.208 316.93078 336.664696 
C 327.889502 363.121391 343.953056 387.1622 364.202135 407.411278 
C 384.451213 427.660356 408.492021 443.723911 434.948717 454.682633 
C 461.405412 465.641355 489.763479 471.282125 518.4 471.282125 
C 547.036521 471.282125 575.394588 465.641355 601.851283 454.682633 
C 628.307979 443.723911 652.348787 427.660356 672.597865 407.411278 
C 692.846944 387.1622 708.910498 363.121391 719.86922 336.664696 
C 730.827942 310.208 736.468713 281.849933 736.468713 253.213413 
" style="fill:none;stroke:#000000;stroke-linecap:square;stroke-linejoin:miter;stroke-width:0.8;"/>
   </g>
   <g id="text_7">
    <!-- Acidity -->
    <g transform="translate(518.4 11.037739)scale(0.08328 -0.08328)">
     <defs>
      <path d="M 66.796875 0 
L 56.109375 0 
L 47.703125 21.78125 
L 17.828125 21.78125 
L 9.90625 0 
L -0.09375 0 
L 27.390625 71.578125 
L 37.59375 71.578125 
z
M 44.828125 29.296875 
Q 36.03125 52.546875 34.90625 55.6875 
Q 33.796875 58.84375 32.421875 64.109375 
L 32.171875 64.109375 
Q 30.8125 56.890625 28.515625 50.734375 
L 20.515625 29.296875 
z
" id="ArialUnicodeMS-65"/>
      <path d="M 49.125 17.921875 
Q 47.40625 8.015625 41.296875 3.390625 
Q 35.203125 -1.21875 27.484375 -1.21875 
Q 16.21875 -1.21875 10.0625 6.171875 
Q 3.90625 13.578125 3.90625 25.78125 
Q 3.90625 35.890625 7.4375 41.96875 
Q 10.984375 48.046875 16.296875 50.515625 
Q 21.625 52.984375 27.484375 52.984375 
Q 35.5 52.984375 41.1875 48.828125 
Q 46.875 44.671875 48.1875 36.625 
L 39.703125 35.296875 
Q 38.375 40.53125 35.421875 43.15625 
Q 32.46875 45.796875 27.875 45.796875 
Q 20.515625 45.796875 16.703125 40.578125 
Q 12.890625 35.359375 12.890625 25.984375 
Q 12.890625 16.40625 16.625 11.203125 
Q 20.359375 6 27.390625 6 
Q 33.0625 6 36.296875 9.25 
Q 39.546875 12.5 40.375 19 
z
" id="ArialUnicodeMS-99"/>
      <path d="M 15.484375 0 
L 6.6875 0 
L 6.6875 51.8125 
L 15.484375 51.8125 
z
M 15.484375 61.625 
L 6.6875 61.625 
L 6.6875 71.578125 
L 15.484375 71.578125 
z
" id="ArialUnicodeMS-105"/>
      <path d="M 48.578125 0 
L 40.375 0 
L 40.375 6.59375 
L 40.1875 6.59375 
Q 35.453125 -1.21875 25.875 -1.21875 
Q 16.359375 -1.21875 9.984375 6.328125 
Q 3.609375 13.875 3.609375 25.875 
Q 3.609375 38.421875 9.609375 45.703125 
Q 15.625 52.984375 25.484375 52.984375 
Q 34.765625 52.984375 39.59375 45.90625 
L 39.796875 45.90625 
L 39.796875 71.578125 
L 48.578125 71.578125 
z
M 26.8125 6 
Q 32.5625 6 36.5625 10.734375 
Q 40.578125 15.484375 40.578125 25.09375 
Q 40.578125 34.578125 36.90625 40.1875 
Q 33.25 45.796875 26.421875 45.796875 
Q 19.578125 45.796875 16.078125 40.296875 
Q 12.59375 34.8125 12.59375 25.875 
Q 12.59375 19.4375 14.46875 14.96875 
Q 16.359375 10.5 19.71875 8.25 
Q 23.09375 6 26.8125 6 
z
" id="ArialUnicodeMS-100"/>
      <path d="M 26.90625 0.09375 
Q 23 -0.6875 20.3125 -0.6875 
Q 14.546875 -0.6875 11.90625 1.34375 
Q 9.28125 3.375 8.6875 6.5 
Q 8.109375 9.625 8.109375 15.1875 
L 8.109375 45.015625 
L 1.703125 45.015625 
L 1.703125 51.8125 
L 8.109375 51.8125 
L 8.109375 64.703125 
L 16.890625 70.015625 
L 16.890625 51.8125 
L 25.6875 51.8125 
L 25.6875 45.015625 
L 16.890625 45.015625 
L 16.890625 14.703125 
Q 16.890625 10.796875 17.6875 9.15625 
Q 18.5 7.515625 21.78125 7.515625 
Q 23.6875 7.515625 25.6875 7.90625 
z
" id="ArialUnicodeMS-116"/>
      <path d="M 49.21875 51.8125 
L 29.390625 -0.875 
Q 29.34375 -0.984375 29.296875 -1.21875 
Q 26.46875 -10.015625 22.671875 -15.5 
Q 18.890625 -21 11.921875 -21 
Q 9.578125 -21 6.203125 -20.015625 
L 5.328125 -11.71875 
Q 7.859375 -12.5 10.296875 -12.5 
Q 15.1875 -12.5 17.0625 -9.8125 
Q 18.953125 -7.125 21.296875 -0.09375 
L 1.609375 51.8125 
L 11.078125 51.8125 
L 23.296875 17.875 
Q 24.359375 14.75 25.59375 9.8125 
L 25.78125 9.8125 
Q 27 15.484375 28.90625 20.609375 
L 40.28125 51.8125 
z
" id="ArialUnicodeMS-121"/>
     </defs>
     <use xlink:href="#ArialUnicodeMS-65"/>
     <use x="66.699219" xlink:href="#ArialUnicodeMS-99"/>
     <use x="116.699219" xlink:href="#ArialUnicodeMS-105"/>
     <use x="138.916016" xlink:href="#ArialUnicodeMS-100"/>
     <use x="194.53125" xlink:href="#ArialUnicodeMS-105"/>
     <use x="216.748047" xlink:href="#ArialUnicodeMS-116"/>
     <use x="244.53125" xlink:href="#ArialUnicodeMS-121"/>
    </g>
    <!-- 5.00 -->
    <g transform="translate(518.4 19.939851)scale(0.08328 -0.08328)">
     <defs>
      <path d="M 15.828125 43.015625 
Q 22.359375 47.515625 29.390625 47.515625 
Q 38.328125 47.515625 44.96875 41.1875 
Q 51.609375 34.859375 51.609375 24.3125 
Q 51.609375 13.671875 44.875 6.21875 
Q 38.140625 -1.21875 27.203125 -1.21875 
Q 18.265625 -1.21875 11.71875 3.828125 
Q 5.171875 8.890625 4.203125 18.796875 
L 13.375 19.484375 
Q 14.5 12.703125 18.15625 9.34375 
Q 21.828125 6 27.203125 6 
Q 33.890625 6 38.03125 11.046875 
Q 42.1875 16.109375 42.1875 23.484375 
Q 42.1875 31 37.9375 35.34375 
Q 33.6875 39.703125 27 39.703125 
Q 18.5625 39.703125 14.015625 32.8125 
L 5.71875 33.796875 
L 12.703125 70.609375 
L 48.1875 70.609375 
L 48.1875 62.109375 
L 19.671875 62.109375 
z
" id="ArialUnicodeMS-53"/>
      <path d="M 18.890625 0 
L 8.890625 0 
L 8.890625 10.015625 
L 18.890625 10.015625 
z
" id="ArialUnicodeMS-46"/>
     </defs>
     <use xlink:href="#ArialUnicodeMS-53"/>
     <use x="55.615234" xlink:href="#ArialUnicodeMS-46"/>
     <use x="83.398438" xlink:href="#ArialUnicodeMS-48"/>
     <use x="139.013672" xlink:href="#ArialUnicodeMS-48"/>
    </g>
   </g>
   <g id="text_8">
    <!-- Aftertaste -->
    <g transform="translate(328.571011 67.202858)scale(0.08328 -0.08328)">
     <defs>
      <path d="M 31.109375 71.921875 
L 29.78125 64.203125 
Q 27.15625 64.703125 24.609375 64.703125 
Q 21.4375 64.703125 19.40625 63.359375 
Q 17.390625 62.015625 17.390625 56.6875 
L 17.390625 51.8125 
L 27.390625 51.8125 
L 27.390625 45.015625 
L 17.390625 45.015625 
L 17.390625 0 
L 8.59375 0 
L 8.59375 45.015625 
L 0.78125 45.015625 
L 0.78125 51.8125 
L 8.59375 51.8125 
L 8.59375 57.421875 
Q 8.59375 61.328125 9.328125 64.5 
Q 10.0625 67.671875 13.203125 70.234375 
Q 16.359375 72.796875 22.90625 72.796875 
Q 26.8125 72.796875 31.109375 71.921875 
z
" id="ArialUnicodeMS-102"/>
      <path d="M 51.703125 23.6875 
L 12.890625 23.6875 
Q 13.421875 15.09375 17.796875 10.546875 
Q 22.171875 6 28.71875 6 
Q 33.734375 6 37.15625 8.65625 
Q 40.578125 11.328125 42.390625 16.703125 
L 51.421875 15.578125 
Q 49.21875 7.46875 43.359375 3.125 
Q 37.5 -1.21875 28.71875 -1.21875 
Q 17.046875 -1.21875 10.46875 5.9375 
Q 3.90625 13.09375 3.90625 25.484375 
Q 3.90625 37.75 10.28125 45.359375 
Q 16.65625 52.984375 28.21875 52.984375 
Q 33.890625 52.984375 39.140625 50.484375 
Q 44.390625 48 48.046875 42.015625 
Q 51.703125 36.03125 51.703125 23.6875 
z
M 42.671875 30.90625 
Q 42.140625 38.8125 37.765625 42.296875 
Q 33.40625 45.796875 28.21875 45.796875 
Q 22.015625 45.796875 18.015625 41.640625 
Q 14.015625 37.5 13.375 30.90625 
z
" id="ArialUnicodeMS-101"/>
      <path d="M 34.625 50.203125 
L 31.59375 42.09375 
Q 28.328125 44 25.203125 44 
Q 20.265625 44 17.71875 39.578125 
Q 15.1875 35.15625 15.1875 27.203125 
L 15.1875 0 
L 6.390625 0 
L 6.390625 51.8125 
L 14.40625 51.8125 
L 14.40625 44 
L 14.59375 44 
Q 18.796875 52.984375 25.59375 52.984375 
Q 30.078125 52.984375 34.625 50.203125 
z
" id="ArialUnicodeMS-114"/>
      <path d="M 51.609375 0 
L 42.390625 0 
Q 41.109375 2.4375 40.578125 6.390625 
Q 31.734375 -1.21875 21.484375 -1.21875 
Q 13.28125 -1.21875 8.546875 2.875 
Q 3.8125 6.984375 3.8125 13.71875 
Q 3.8125 20.171875 8.375 24.34375 
Q 12.9375 28.515625 24.21875 29.890625 
L 32.421875 31.109375 
Q 37.015625 31.84375 39.984375 32.90625 
Q 39.984375 36.859375 39.734375 38.5 
Q 39.5 40.140625 38.296875 41.890625 
Q 37.109375 43.65625 34.46875 44.71875 
Q 31.84375 45.796875 27.390625 45.796875 
Q 21.734375 45.796875 18.4375 43.703125 
Q 15.140625 41.609375 13.921875 35.890625 
L 5.328125 37.015625 
Q 6.734375 44.96875 12.59375 48.96875 
Q 18.453125 52.984375 28.71875 52.984375 
Q 38.03125 52.984375 42.40625 50.21875 
Q 46.78125 47.46875 47.78125 43.5625 
Q 48.78125 39.65625 48.78125 33.5 
L 48.78125 21.6875 
Q 48.78125 10.890625 49.1875 7.203125 
Q 49.609375 3.515625 51.609375 0 
z
M 39.984375 22.796875 
L 39.984375 25.984375 
Q 33.109375 23.6875 23.140625 22.34375 
Q 13.1875 21 13.1875 13.921875 
Q 13.1875 10.359375 15.875 8.03125 
Q 18.5625 5.71875 23.578125 5.71875 
Q 30.078125 5.71875 35.03125 9.59375 
Q 39.984375 13.484375 39.984375 22.796875 
z
" id="ArialUnicodeMS-97"/>
      <path d="M 35.59375 37.3125 
Q 35.015625 41.546875 32.15625 43.671875 
Q 29.296875 45.796875 24.21875 45.796875 
Q 19.1875 45.796875 16.078125 44.09375 
Q 12.984375 42.390625 12.984375 39.109375 
Q 12.984375 36.03125 15.453125 34.71875 
Q 17.921875 33.40625 25.203125 31.5 
Q 33.40625 29.390625 37.46875 27.78125 
Q 41.546875 26.171875 43.8125 23.265625 
Q 46.09375 20.359375 46.09375 15.1875 
Q 46.09375 8.25 40.421875 3.515625 
Q 34.765625 -1.21875 25.296875 -1.21875 
Q 15.4375 -1.21875 9.890625 2.953125 
Q 4.34375 7.125 3.078125 15.484375 
L 11.8125 16.796875 
Q 12.5 11.375 15.84375 8.6875 
Q 19.1875 6 25.203125 6 
Q 30.953125 6 34.03125 8.421875 
Q 37.109375 10.84375 37.109375 14.3125 
Q 37.109375 16.65625 35.6875 18.0625 
Q 34.28125 19.484375 32.15625 20.1875 
Q 30.03125 20.90625 22.609375 22.703125 
Q 11.578125 25.34375 8.03125 29.09375 
Q 4.5 32.859375 4.5 38.09375 
Q 4.5 44.578125 9.671875 48.78125 
Q 14.84375 52.984375 23.578125 52.984375 
Q 32.859375 52.984375 38.015625 49.34375 
Q 43.171875 45.703125 44.1875 38.484375 
z
" id="ArialUnicodeMS-115"/>
     </defs>
     <use xlink:href="#ArialUnicodeMS-65"/>
     <use x="66.699219" xlink:href="#ArialUnicodeMS-102"/>
     <use x="94.482422" xlink:href="#ArialUnicodeMS-116"/>
     <use x="122.265625" xlink:href="#ArialUnicodeMS-101"/>
     <use x="177.880859" xlink:href="#ArialUnicodeMS-114"/>
     <use x="211.181641" xlink:href="#ArialUnicodeMS-116"/>
     <use x="238.964844" xlink:href="#ArialUnicodeMS-97"/>
     <use x="294.580078" xlink:href="#ArialUnicodeMS-115"/>
     <use x="344.580078" xlink:href="#ArialUnicodeMS-116"/>
     <use x="372.363281" xlink:href="#ArialUnicodeMS-101"/>
    </g>
    <!-- 5.00 -->
    <g transform="translate(348.003878 76.015183)scale(0.08328 -0.08328)">
     <use xlink:href="#ArialUnicodeMS-53"/>
     <use x="55.615234" xlink:href="#ArialUnicodeMS-46"/>
     <use x="83.398438" xlink:href="#ArialUnicodeMS-48"/>
     <use x="139.013672" xlink:href="#ArialUnicodeMS-48"/>
    </g>
   </g>
   <g id="text_9">
    <!-- Clean Cup -->
    <g transform="translate(242.820167 209.355007)scale(0.08328 -0.08328)">
     <defs>
      <path d="M 68.3125 22.703125 
Q 65.1875 10.640625 57.390625 4.703125 
Q 49.609375 -1.21875 38.71875 -1.21875 
Q 21.140625 -1.21875 13.109375 9.78125 
Q 5.078125 20.796875 5.078125 36.28125 
Q 5.078125 53.421875 14.515625 63.109375 
Q 23.96875 72.796875 38.8125 72.796875 
Q 49.265625 72.796875 56.6875 67.46875 
Q 64.109375 62.15625 67.09375 51.90625 
L 57.8125 49.703125 
Q 55.46875 57.171875 50.6875 60.9375 
Q 45.90625 64.703125 38.71875 64.703125 
Q 27 64.703125 20.9375 57 
Q 14.890625 49.3125 14.890625 36.375 
Q 14.890625 21.4375 21.265625 14.15625 
Q 27.640625 6.890625 37.890625 6.890625 
Q 46.296875 6.890625 51.53125 11.421875 
Q 56.78125 15.96875 58.890625 25.09375 
z
" id="ArialUnicodeMS-67"/>
      <path d="M 15.484375 0 
L 6.6875 0 
L 6.6875 71.578125 
L 15.484375 71.578125 
z
" id="ArialUnicodeMS-108"/>
      <path d="M 49.03125 0 
L 40.1875 0 
L 40.1875 31.5 
Q 40.1875 39.453125 37.328125 42.421875 
Q 34.46875 45.40625 29.390625 45.40625 
Q 25.484375 45.40625 21.984375 43.5 
Q 18.5 41.609375 17.03125 38.140625 
Q 15.578125 34.671875 15.578125 28.328125 
L 15.578125 0 
L 6.78125 0 
L 6.78125 51.8125 
L 14.703125 51.8125 
L 14.703125 44.484375 
L 14.890625 44.484375 
Q 17.671875 48.734375 21.75 50.859375 
Q 25.828125 52.984375 31.203125 52.984375 
Q 35.296875 52.984375 39.296875 51.515625 
Q 43.3125 50.046875 45.578125 47.109375 
Q 47.859375 44.1875 48.4375 40.859375 
Q 49.03125 37.546875 49.03125 31.890625 
z
" id="ArialUnicodeMS-110"/>
      <path d="M 48.6875 0 
L 40.828125 0 
L 40.828125 7.625 
L 40.578125 7.625 
Q 34.625 -1.21875 24.3125 -1.21875 
Q 18.890625 -1.21875 14.28125 1.296875 
Q 9.671875 3.8125 8.125 8.21875 
Q 6.59375 12.640625 6.59375 19.671875 
L 6.59375 51.8125 
L 15.375 51.8125 
L 15.375 23.09375 
Q 15.375 16.21875 16.03125 13.234375 
Q 16.703125 10.25 19.484375 8.3125 
Q 22.265625 6.390625 26.125 6.390625 
Q 31.109375 6.390625 35.5 9.828125 
Q 39.890625 13.28125 39.890625 24.125 
L 39.890625 51.8125 
L 48.6875 51.8125 
z
" id="ArialUnicodeMS-117"/>
      <path d="M 14.984375 45.125 
Q 19.921875 52.984375 29.78125 52.984375 
Q 39.984375 52.984375 45.890625 45.578125 
Q 51.8125 38.1875 51.8125 26.3125 
Q 51.8125 13.671875 45.265625 6.21875 
Q 38.71875 -1.21875 29.203125 -1.21875 
Q 20.84375 -1.21875 15.828125 5.421875 
L 15.578125 5.421875 
L 15.578125 -19.921875 
L 6.78125 -19.921875 
L 6.78125 51.8125 
L 14.796875 51.8125 
L 14.796875 45.125 
z
M 28.609375 6 
Q 34.765625 6 38.796875 11.109375 
Q 42.828125 16.21875 42.828125 26.3125 
Q 42.828125 35.84375 38.9375 40.96875 
Q 35.0625 46.09375 29 46.09375 
Q 22.75 46.09375 18.71875 40.375 
Q 14.703125 34.671875 14.703125 25.59375 
Q 14.703125 15.96875 18.546875 10.984375 
Q 22.40625 6 28.609375 6 
z
" id="ArialUnicodeMS-112"/>
     </defs>
     <use xlink:href="#ArialUnicodeMS-67"/>
     <use x="72.216797" xlink:href="#ArialUnicodeMS-108"/>
     <use x="94.433594" xlink:href="#ArialUnicodeMS-101"/>
     <use x="150.048828" xlink:href="#ArialUnicodeMS-97"/>
     <use x="205.664062" xlink:href="#ArialUnicodeMS-110"/>
     <use x="261.279297" xlink:href="#ArialUnicodeMS-32"/>
     <use x="289.0625" xlink:href="#ArialUnicodeMS-67"/>
     <use x="361.279297" xlink:href="#ArialUnicodeMS-117"/>
     <use x="416.894531" xlink:href="#ArialUnicodeMS-112"/>
    </g>
    <!-- 5.00 -->
    <g transform="translate(265.961597 218.167332)scale(0.08328 -0.08328)">
     <use xlink:href="#ArialUnicodeMS-53"/>
     <use x="55.615234" xlink:href="#ArialUnicodeMS-46"/>
     <use x="83.398438" xlink:href="#ArialUnicodeMS-48"/>
     <use x="139.013672" xlink:href="#ArialUnicodeMS-48"/>
    </g>
   </g>
   <g id="text_10">
    <!-- Head -->
    <g transform="translate(290.753827 370.896008)scale(0.08328 -0.08328)">
     <defs>
      <path d="M 64.203125 0 
L 54.6875 0 
L 54.6875 33.6875 
L 17.484375 33.6875 
L 17.484375 0 
L 8.015625 0 
L 8.015625 71.578125 
L 17.484375 71.578125 
L 17.484375 42.1875 
L 54.6875 42.1875 
L 54.6875 71.578125 
L 64.203125 71.578125 
z
" id="ArialUnicodeMS-72"/>
     </defs>
     <use xlink:href="#ArialUnicodeMS-72"/>
     <use x="72.216797" xlink:href="#ArialUnicodeMS-101"/>
     <use x="127.832031" xlink:href="#ArialUnicodeMS-97"/>
     <use x="183.447266" xlink:href="#ArialUnicodeMS-100"/>
    </g>
    <!-- 5.00 -->
    <g transform="translate(294.454582 379.708333)scale(0.08328 -0.08328)">
     <use xlink:href="#ArialUnicodeMS-53"/>
     <use x="55.615234" xlink:href="#ArialUnicodeMS-46"/>
     <use x="83.398438" xlink:href="#ArialUnicodeMS-48"/>
     <use x="139.013672" xlink:href="#ArialUnicodeMS-48"/>
    </g>
   </g>
   <g id="text_11">
    <!-- Fragrance -->
    <g transform="translate(398.405461 476.322639)scale(0.08328 -0.08328)">
     <defs>
      <path d="M 56.296875 63.09375 
L 17.484375 63.09375 
L 17.484375 40.921875 
L 51.125 40.921875 
L 51.125 32.421875 
L 17.484375 32.421875 
L 17.484375 0 
L 8.015625 0 
L 8.015625 71.578125 
L 56.296875 71.578125 
z
" id="ArialUnicodeMS-70"/>
      <path d="M 49.125 6.984375 
Q 49.125 -4.046875 46.921875 -9.484375 
Q 44.734375 -14.9375 39.109375 -17.96875 
Q 33.5 -21 25.6875 -21 
Q 16.890625 -21 11.03125 -17.09375 
Q 5.171875 -13.1875 5.171875 -4.296875 
L 13.71875 -5.609375 
Q 14.203125 -9.71875 17.15625 -11.765625 
Q 20.125 -13.8125 25.59375 -13.8125 
Q 32.421875 -13.8125 35.59375 -11.03125 
Q 38.765625 -8.25 39.46875 -4.25 
Q 40.1875 -0.25 40.1875 6.78125 
Q 34.46875 0 25.78125 0 
Q 15.671875 0 9.546875 7.46875 
Q 3.421875 14.9375 3.421875 26.3125 
Q 3.421875 37.75 9.375 45.359375 
Q 15.328125 52.984375 25.875 52.984375 
Q 35.0625 52.984375 40.828125 45.609375 
L 41.015625 45.609375 
L 41.015625 51.8125 
L 49.125 51.8125 
z
M 26.609375 7.171875 
Q 32.234375 7.171875 36.578125 11.640625 
Q 40.921875 16.109375 40.921875 26.609375 
Q 40.921875 35.890625 36.765625 40.84375 
Q 32.625 45.796875 26.515625 45.796875 
Q 20.265625 45.796875 16.328125 40.71875 
Q 12.40625 35.640625 12.40625 26.8125 
Q 12.40625 16.609375 16.53125 11.890625 
Q 20.65625 7.171875 26.609375 7.171875 
z
" id="ArialUnicodeMS-103"/>
     </defs>
     <use xlink:href="#ArialUnicodeMS-70"/>
     <use x="61.083984" xlink:href="#ArialUnicodeMS-114"/>
     <use x="94.384766" xlink:href="#ArialUnicodeMS-97"/>
     <use x="150" xlink:href="#ArialUnicodeMS-103"/>
     <use x="205.615234" xlink:href="#ArialUnicodeMS-114"/>
     <use x="238.916016" xlink:href="#ArialUnicodeMS-97"/>
     <use x="294.53125" xlink:href="#ArialUnicodeMS-110"/>
     <use x="350.146484" xlink:href="#ArialUnicodeMS-99"/>
     <use x="400.146484" xlink:href="#ArialUnicodeMS-101"/>
    </g>
    <!-- 5.00 -->
    <g transform="translate(420.15065 485.22475)scale(0.08328 -0.08328)">
     <use xlink:href="#ArialUnicodeMS-53"/>
     <use x="55.615234" xlink:href="#ArialUnicodeMS-46"/>
     <use x="83.398438" xlink:href="#ArialUnicodeMS-48"/>
     <use x="139.013672" xlink:href="#ArialUnicodeMS-48"/>
    </g>
   </g>
   <g id="text_12">
    <!-- Sweetness -->
    <g transform="translate(600.442282 476.367532)scale(0.08328 -0.08328)">
     <defs>
      <path d="M 50.203125 50.59375 
Q 49.609375 57.421875 45.265625 60.859375 
Q 40.921875 64.3125 32.8125 64.3125 
Q 25.484375 64.3125 20.890625 61.578125 
Q 16.3125 58.84375 16.3125 53.609375 
Q 16.3125 48.96875 19.84375 46.703125 
Q 23.390625 44.4375 33.40625 42.1875 
Q 42.28125 40.234375 47.890625 38.1875 
Q 53.515625 36.140625 57.515625 31.8125 
Q 61.53125 27.484375 61.53125 20.21875 
Q 61.53125 10.984375 54.171875 4.875 
Q 46.828125 -1.21875 35.015625 -1.21875 
Q 19.921875 -1.21875 12.421875 5.515625 
Q 4.9375 12.25 4.5 23 
L 13.484375 23.78125 
Q 14.109375 15.1875 20.109375 11.25 
Q 26.125 7.328125 34.625 7.328125 
Q 42.578125 7.328125 47.484375 10.59375 
Q 52.390625 13.875 52.390625 19.484375 
Q 52.390625 25.34375 47.265625 28.03125 
Q 42.140625 30.71875 30.046875 33.328125 
Q 17.96875 35.9375 12.640625 40.671875 
Q 7.328125 45.40625 7.328125 52.984375 
Q 7.328125 61.578125 14.0625 67.1875 
Q 20.796875 72.796875 32.421875 72.796875 
Q 44.34375 72.796875 51.59375 67.203125 
Q 58.84375 61.625 59.28125 51.3125 
z
" id="ArialUnicodeMS-83"/>
      <path d="M 71.6875 51.8125 
L 55.421875 0 
L 46.296875 0 
L 38.09375 31.109375 
Q 38.03125 31.109375 37.046875 35.296875 
Q 36.078125 39.5 36.078125 39.890625 
L 35.890625 39.890625 
L 25.59375 0 
L 16.40625 0 
L 0.484375 51.8125 
L 9.625 51.8125 
L 20.90625 10.796875 
L 22.65625 17.78125 
L 31.890625 51.8125 
L 40.921875 51.8125 
L 47.90625 24.65625 
Q 50.828125 13.421875 51.125 11.921875 
L 51.3125 11.921875 
L 63.09375 51.8125 
z
" id="ArialUnicodeMS-119"/>
     </defs>
     <use xlink:href="#ArialUnicodeMS-83"/>
     <use x="66.699219" xlink:href="#ArialUnicodeMS-119"/>
     <use x="138.916016" xlink:href="#ArialUnicodeMS-101"/>
     <use x="194.53125" xlink:href="#ArialUnicodeMS-101"/>
     <use x="250.146484" xlink:href="#ArialUnicodeMS-116"/>
     <use x="277.929688" xlink:href="#ArialUnicodeMS-110"/>
     <use x="333.544922" xlink:href="#ArialUnicodeMS-101"/>
     <use x="389.160156" xlink:href="#ArialUnicodeMS-115"/>
     <use x="439.160156" xlink:href="#ArialUnicodeMS-115"/>
    </g>
    <!-- 5.00 -->
    <g transform="translate(600.442282 485.179857)scale(0.08328 -0.08328)">
     <use xlink:href="#ArialUnicodeMS-53"/>
     <use x="55.615234" xlink:href="#ArialUnicodeMS-46"/>
     <use x="83.398438" xlink:href="#ArialUnicodeMS-48"/>
     <use x="139.013672" xlink:href="#ArialUnicodeMS-48"/>
    </g>
   </g>
   <g id="text_13">
    <!-- Aroma -->
    <g transform="translate(726.138349 370.896008)scale(0.08328 -0.08328)">
     <defs>
      <path d="M 27.78125 52.984375 
Q 38.28125 52.984375 45.1875 46.140625 
Q 52.09375 39.3125 52.09375 26.703125 
Q 52.09375 11.421875 44.625 5.09375 
Q 37.15625 -1.21875 27.78125 -1.21875 
Q 17.96875 -1.21875 10.734375 5.265625 
Q 3.515625 11.765625 3.515625 25.875 
Q 3.515625 39.546875 10.5 46.265625 
Q 17.484375 52.984375 27.78125 52.984375 
z
M 27.78125 6 
Q 35.296875 6 39.203125 11.5625 
Q 43.109375 17.140625 43.109375 26.21875 
Q 43.109375 35.9375 38.6875 40.859375 
Q 34.28125 45.796875 27.78125 45.796875 
Q 21.09375 45.796875 16.796875 40.796875 
Q 12.5 35.796875 12.5 25.875 
Q 12.5 16.015625 16.859375 11 
Q 21.234375 6 27.78125 6 
z
" id="ArialUnicodeMS-111"/>
      <path d="M 76.90625 0 
L 68.109375 0 
L 68.109375 32.71875 
Q 68.109375 36.328125 67.625 38.890625 
Q 67.140625 41.453125 65.109375 43.421875 
Q 63.09375 45.40625 58.796875 45.40625 
Q 53.609375 45.40625 49.84375 41.796875 
Q 46.09375 38.1875 46.09375 30.078125 
L 46.09375 0 
L 37.3125 0 
L 37.3125 33.6875 
Q 37.3125 40.4375 34.9375 42.921875 
Q 32.5625 45.40625 28.21875 45.40625 
Q 22.5625 45.40625 18.921875 41.5 
Q 15.28125 37.59375 15.28125 26.90625 
L 15.28125 0 
L 6.5 0 
L 6.5 51.8125 
L 14.40625 51.8125 
L 14.40625 44.578125 
L 14.59375 44.578125 
Q 19.875 52.984375 30.078125 52.984375 
Q 35.796875 52.984375 39.484375 50.703125 
Q 43.171875 48.4375 44.828125 43.890625 
Q 50.59375 52.984375 60.796875 52.984375 
Q 68.84375 52.984375 72.875 48.625 
Q 76.90625 44.28125 76.90625 35.59375 
z
" id="ArialUnicodeMS-109"/>
     </defs>
     <use xlink:href="#ArialUnicodeMS-65"/>
     <use x="66.699219" xlink:href="#ArialUnicodeMS-114"/>
     <use x="100" xlink:href="#ArialUnicodeMS-111"/>
     <use x="155.615234" xlink:href="#ArialUnicodeMS-109"/>
     <use x="238.916016" xlink:href="#ArialUnicodeMS-97"/>
    </g>
    <!-- 5.00 -->
    <g transform="translate(726.138349 379.708333)scale(0.08328 -0.08328)">
     <use xlink:href="#ArialUnicodeMS-53"/>
     <use x="55.615234" xlink:href="#ArialUnicodeMS-46"/>
     <use x="83.398438" xlink:href="#ArialUnicodeMS-48"/>
     <use x="139.013672" xlink:href="#ArialUnicodeMS-48"/>
    </g>
   </g>
   <g id="text_14">
    <!-- Balance -->
    <g transform="translate(754.631335 209.304258)scale(0.08328 -0.08328)">
     <defs>
      <path d="M 48.09375 38.09375 
Q 54.828125 36.03125 58.171875 31.421875 
Q 61.53125 26.8125 61.53125 20.796875 
Q 61.53125 14.796875 58.5 9.765625 
Q 55.46875 4.734375 49.90625 2.359375 
Q 44.34375 0 34.8125 0 
L 7.421875 0 
L 7.421875 71.578125 
L 34.28125 71.578125 
Q 47.3125 71.578125 52.65625 65.90625 
Q 58.015625 60.25 58.015625 53.328125 
Q 58.015625 48.640625 55.546875 44.65625 
Q 53.078125 40.671875 48.09375 38.09375 
z
M 16.890625 41.609375 
L 32.421875 41.609375 
Q 37.203125 41.609375 40.453125 42.140625 
Q 43.703125 42.671875 46.1875 44.96875 
Q 48.6875 47.265625 48.6875 52.09375 
Q 48.6875 57.171875 46.171875 59.59375 
Q 43.65625 62.015625 40.15625 62.546875 
Q 36.671875 63.09375 31.203125 63.09375 
L 16.890625 63.09375 
z
M 16.890625 8.5 
L 34.71875 8.5 
Q 44.28125 8.5 47.984375 11.765625 
Q 51.703125 15.046875 51.703125 20.796875 
Q 51.703125 26.609375 47.75 29.859375 
Q 43.796875 33.109375 33.5 33.109375 
L 16.890625 33.109375 
z
" id="ArialUnicodeMS-66"/>
     </defs>
     <use xlink:href="#ArialUnicodeMS-66"/>
     <use x="66.699219" xlink:href="#ArialUnicodeMS-97"/>
     <use x="122.314453" xlink:href="#ArialUnicodeMS-108"/>
     <use x="144.53125" xlink:href="#ArialUnicodeMS-97"/>
     <use x="200.146484" xlink:href="#ArialUnicodeMS-110"/>
     <use x="255.761719" xlink:href="#ArialUnicodeMS-99"/>
     <use x="305.761719" xlink:href="#ArialUnicodeMS-101"/>
    </g>
    <!-- 5.00 -->
    <g transform="translate(754.631335 218.116583)scale(0.08328 -0.08328)">
     <use xlink:href="#ArialUnicodeMS-53"/>
     <use x="55.615234" xlink:href="#ArialUnicodeMS-46"/>
     <use x="83.398438" xlink:href="#ArialUnicodeMS-48"/>
     <use x="139.013672" xlink:href="#ArialUnicodeMS-48"/>
    </g>
   </g>
   <g id="text_15">
    <!-- Body -->
    <g transform="translate(672.589053 67.157965)scale(0.08328 -0.08328)">
     <use xlink:href="#ArialUnicodeMS-66"/>
     <use x="66.699219" xlink:href="#ArialUnicodeMS-111"/>
     <use x="122.314453" xlink:href="#ArialUnicodeMS-100"/>
     <use x="177.929688" xlink:href="#ArialUnicodeMS-121"/>
    </g>
    <!-- 5.00 -->
    <g transform="translate(672.589053 76.060077)scale(0.08328 -0.08328)">
     <use xlink:href="#ArialUnicodeMS-53"/>
     <use x="55.615234" xlink:href="#ArialUnicodeMS-46"/>
     <use x="83.398438" xlink:href="#ArialUnicodeMS-48"/>
     <use x="139.013672" xlink:href="#ArialUnicodeMS-48"/>
    </g>
   </g>
   <g id="text_16">
    <g id="patch_6">
     <path d="M 486.7587 266.678313 
L 550.0413 266.678313 
L 550.0413 230.822313 
L 486.7587 230.822313 
z
" style="fill:#212121;opacity:0.5;stroke:#000000;stroke-linejoin:miter;"/>
    </g>
    <!-- 50.00 -->
    <g style="fill:#ffffff;" transform="translate(496.7811 253.213413)scale(0.1728 -0.1728)">
     <use xlink:href="#ArialUnicodeMS-53"/>
     <use x="55.615234" xlink:href="#ArialUnicodeMS-48"/>
     <use x="111.230469" xlink:href="#ArialUnicodeMS-46"/>
     <use x="139.013672" xlink:href="#ArialUnicodeMS-48"/>
     <use x="194.628906" xlink:href="#ArialUnicodeMS-48"/>
    </g>
   </g>
   <g id="text_17">
    <!--  - -->
    <g style="opacity:0;" transform="translate(514.002375 13.90725)scale(0.144 -0.144)">
     <use xlink:href="#ArialUnicodeMS-32"/>
     <use x="27.783203" xlink:href="#ArialUnicodeMS-45"/>
    </g>
    <!--   -->
    <g style="opacity:0;" transform="translate(516.39975 29.1447)scale(0.144 -0.144)">
     <use xlink:href="#ArialUnicodeMS-32"/>
    </g>
   </g>
  </g>
 </g>
 <defs>
  <clipPath id="pa566e90c19">
   <path d="M 736.468713 253.213412 
C 736.468713 224.576892 730.827942 196.218825 719.86922 169.762129 
C 708.910498 143.305434 692.846944 119.264625 672.597865 99.015547 
C 652.348787 78.766469 628.307979 62.702914 601.851283 51.744192 
C 575.394588 40.78547 547.036521 35.1447 518.4 35.1447 
C 489.763479 35.1447 461.405412 40.78547 434.948717 51.744192 
C 408.492021 62.702914 384.451213 78.766469 364.202135 99.015547 
C 343.953056 119.264625 327.889502 143.305434 316.93078 169.762129 
C 305.972058 196.218825 300.331287 224.576892 300.331287 253.213412 
C 300.331287 281.849933 305.972058 310.208 316.93078 336.664696 
C 327.889502 363.121391 343.953056 387.1622 364.202135 407.411278 
C 384.451213 427.660356 408.492021 443.723911 434.948717 454.682633 
C 461.405412 465.641355 489.763479 471.282125 518.4 471.282125 
C 547.036521 471.282125 575.394588 465.641355 601.851283 454.682633 
C 628.307979 443.723911 652.348787 427.660356 672.597865 407.411278 
C 692.846944 387.1622 708.910498 363.121391 719.86922 336.664696 
C 730.827942 310.208 736.468713 281.849933 736.468713 253.213413 
M 518.4 253.213412 
C 518.4 253.213412 518.4 253.213412 518.4 253.213412 
C 518.4 253.213412 518.4 253.213412 518.4 253.213412 
C 518.4 253.213412 518.4 253.213412 518.4 253.213412 
C 518.4 253.213412 518.4 253.213412 518.4 253.213412 
C 518.4 253.213412 518.4 253.213412 518.4 253.213412 
C 518.4 253.213412 518.4 253.213412 518.4 253.213412 
C 518.4 253.213412 518.4 253.213412 518.4 253.213412 
C 518.4 253.213412 518.4 253.213412 518.4 253.213412 
C 518.4 253.213412 518.4 253.213412 518.4 253.213412 
C 518.4 253.213412 518.4 253.213412 518.4 253.213412 
C 518.4 253.213412 518.4 253.213412 518.4 253.213412 
C 518.4 253.213412 518.4 253.213412 518.4 253.213412 
C 518.4 253.213412 518.4 253.213412 518.4 253.213412 
C 518.4 253.213412 518.4 253.213412 518.4 253.213412 
C 518.4 253.213412 518.4 253.213412 518.4 253.213412 
C 518.4 253.213412 518.4 253.213412 518.4 253.213412 
M 736.468713 253.213412 
z
"/>
  </clipPath>
 </defs>
</svg>
